<svg width="300" height="300" xmlns="http://www.w3.org/2000/svg" xmlns:svg="http://www.w3.org/2000/svg" class="font">
    <!---->
    <defs>
        <!---->
    </defs>
    <defs>
        <linearGradient gradientTransform="rotate(25)" id="73e47d0e-c17f-4ffb-9f58-a8594b31d4c7" x1="0%" x2="100%" y1="0%" y2="0%">
            <stop offset="0%" stop-color="#30223A"/>
            <stop offset="100%" stop-color="#F13800"/>
        </linearGradient>
    </defs>
    <!---->
    <!---->
    <g class="layer">
        <title>Layer 1</title>
        <g fill="url(#73e47d0e-c17f-4ffb-9f58-a8594b31d4c7)" id="db3d194e-b4a3-4da5-95d0-b9bae68d6849" transform="matrix(3.7594 0 0 3.7594 37.1429 112.613)">
            <path d="m7.76,6.13l-1.94,0l0,3.8c0,1.68 -0.67,2.47 -1.63,2.47c-0.9,0 -1.35,-0.49 -1.45,-1.26c-0.04,-0.37 -0.05,-0.78 -0.05,-1.02l0,-3.99l-1.93,0l0,4.4c0,0.6 0.01,0.98 0.07,1.36c0.16,1.02 1.09,1.89 2.63,1.89c0.71,0 1.24,-0.14 1.79,-0.51l0.57,-0.95l0,1.26l1.94,0l0,-7.45zm8.72,1.89c-0.16,-1.3 -1.07,-2.08 -2.65,-2.08c-0.71,0 -1.26,0.14 -1.79,0.51l-0.57,0.89l0,-1.21l-1.94,0l0,7.45l1.94,0l0,-3.4c0,-2.07 0.74,-2.89 1.68,-2.89c0.93,0 1.37,0.54 1.42,1.32c0.03,0.38 0.03,0.73 0.03,1.04l0,3.93l1.93,0l0,-4.2c0,-0.6 -0.01,-0.98 -0.05,-1.36zm6.17,-2.08c-0.75,0 -1.51,0.18 -1.93,0.51l-0.56,0.82l0,-3.98l-1.93,0l0,10.29l1.93,0l0,-0.99l0.49,0.77c0.38,0.26 1.13,0.42 1.75,0.42c1.92,0 3.57,-1.38 3.57,-4.06c0,-2.2 -1.23,-3.78 -3.32,-3.78zm-0.63,6.48c-0.89,0 -1.86,-0.6 -1.86,-2.3l0,-0.35c0,-1.82 0.87,-2.48 1.93,-2.48c1.15,0 1.88,1.03 1.88,2.55c0,1.72 -0.83,2.58 -1.95,2.58zm12.45,-6.29l-1.93,0l0,1l-0.49,-0.77c-0.38,-0.27 -1.14,-0.42 -1.75,-0.42c-1.92,0 -3.57,1.3 -3.57,4c0,2.18 1.3,3.68 3.4,3.68c0.75,0 1.43,-0.19 1.85,-0.52l0.56,-0.82l0,0.18c0,0.32 0,0.63 -0.02,0.91c-0.07,1.19 -0.8,1.79 -1.99,1.79c-0.99,0 -1.63,-0.43 -1.72,-1.12l-0.01,-0.12l-1.88,0l0.02,0.14c0.16,1.63 1.38,2.54 3.57,2.54c2.35,0 3.86,-1.12 3.94,-3.44c0.02,-0.41 0.02,-0.98 0.02,-1.44l0,-5.59zm-3.87,6.13c-1.14,0 -1.87,-0.96 -1.87,-2.49c0,-1.71 0.82,-2.48 1.94,-2.48c0.9,0 1.87,0.61 1.87,2.29l0,0.21c0,1.82 -0.87,2.47 -1.94,2.47zm6.49,-0.84c-0.69,0 -1.17,0.49 -1.17,1.18c0,0.69 0.48,1.18 1.17,1.18c0.7,0 1.17,-0.49 1.17,-1.18c0,-0.69 -0.47,-1.18 -1.17,-1.18zm13.66,-3.64c-0.17,-1.02 -0.98,-1.84 -2.39,-1.84c-0.68,0 -1.18,0.14 -1.6,0.43l-0.73,0.98c-0.29,-0.81 -1.06,-1.41 -2.28,-1.41c-0.67,0 -1.16,0.14 -1.58,0.43l-0.55,0.9l0,-1.14l-1.93,0l0,7.45l1.93,0l0,-3.82c0,-1.72 0.48,-2.47 1.35,-2.47c0.74,0 1.17,0.42 1.27,1.19c0.04,0.38 0.06,0.79 0.06,1.22l0,3.88l1.91,0l0,-3.82c0,-1.72 0.49,-2.47 1.36,-2.47c0.74,0 1.16,0.42 1.26,1.19c0.04,0.38 0.06,0.79 0.06,1.22l0,3.88l1.93,0l0,-4.44c0,-0.6 -0.01,-0.98 -0.07,-1.36zm8.53,1.92c0,-2.03 -1.21,-3.76 -3.49,-3.76c-2.28,0 -3.78,1.66 -3.78,3.94c0,2.62 1.58,3.9 3.63,3.9c1.75,0 3.15,-0.89 3.52,-2.62l-1.93,0c-0.12,0.8 -0.73,1.26 -1.55,1.26c-0.9,0 -1.6,-0.49 -1.72,-2.06l5.29,0c0.03,-0.25 0.03,-0.48 0.03,-0.66zm-3.57,-2.41c0.92,0 1.45,0.63 1.58,1.81l-3.28,0c0.17,-1.23 0.8,-1.81 1.7,-1.81z" id="svg_2"/>
        </g>
    </g>
</svg>